# xmcd
#
# Track frame offsets:
#	182
#	15790
#	28632
#	44832
#	61745
#	81077
#	99460
#	118737
#	139670
#	157467
#
# Disc length: 2308 seconds
#
# Revision: 3
# Processed by: cddbd v1.5.2PL0 Copyright (c) Steve Scherf et al.
# Submitted via: EZCDAudioConverter 6.0.4.1
#
DISCID=7f09020a
DTITLE=Kenny Rogers - Love Is Strange
DYEAR=1990
DGENRE=Country
TTITLE0=Love Is Strange
TTITLE1=Soldier Of Love
TTITLE2=Listen To The Rain
TTITLE3=If I Were A Painting
TTITLE4=Crazy In Love
TTITLE5=Lay My Body Down
TTITLE6=So Little Love In The World
TTITLE7=Walk Away
TTITLE8=In Our Old Age
TTITLE9=What I Did For Love
EXTD=
EXTT0=
EXTT1=
EXTT2=
EXTT3=
EXTT4=
EXTT5=
EXTT6=
EXTT7=
EXTT8=
EXTT9=
PLAYORDER=
